<?xml version="1.0" encoding="UTF-8"?>
<svg id="Shadow" xmlns="http://www.w3.org/2000/svg" xmlns:xlink="http://www.w3.org/1999/xlink" viewBox="0 0 1280 1280">
  <defs>
    <style>
      .cls-1 {
        fill: url(#linear-gradient);
      }

      .cls-1, .cls-2, .cls-3, .cls-4, .cls-5, .cls-6, .cls-7 {
        stroke-width: 0px;
      }

      .cls-2 {
        fill: url(#linear-gradient-5);
      }

      .cls-3 {
        fill: #fdfdfb;
        filter: url(#drop-shadow-1);
      }

      .cls-4 {
        fill: url(#linear-gradient-2);
      }

      .cls-5 {
        fill: url(#linear-gradient-3);
      }

      .cls-6 {
        fill: url(#linear-gradient-4);
        filter: url(#drop-shadow-2);
      }

      .cls-7 {
        fill: #e43324;
      }
    </style>
    <linearGradient id="linear-gradient" x1="227.76" y1="227.76" x2="1052.24" y2="1052.24" gradientUnits="userSpaceOnUse">
      <stop offset="0" stop-color="#fc9d03"/>
      <stop offset="1" stop-color="#ec3424"/>
    </linearGradient>
    <filter id="drop-shadow-1" filterUnits="userSpaceOnUse">
      <feOffset dx="10" dy="10"/>
      <feGaussianBlur result="blur" stdDeviation="10"/>
      <feFlood flood-color="#000" flood-opacity=".75"/>
      <feComposite in2="blur" operator="in"/>
      <feComposite in="SourceGraphic"/>
    </filter>
    <linearGradient id="linear-gradient-2" x1="640" y1="1010.75" x2="640" y2="269.25" gradientUnits="userSpaceOnUse">
      <stop offset="0" stop-color="#fba102"/>
      <stop offset="1" stop-color="#faa80e"/>
    </linearGradient>
    <linearGradient id="linear-gradient-3" x1="640" y1="1010.75" x2="640" y2="610.22" gradientUnits="userSpaceOnUse">
      <stop offset="0" stop-color="#4b2d6c"/>
      <stop offset="1" stop-color="#4b2e6e"/>
    </linearGradient>
    <linearGradient id="linear-gradient-4" x1="640" y1="952.78" x2="640" y2="320.38" gradientUnits="userSpaceOnUse">
      <stop offset="0" stop-color="#357d9b"/>
      <stop offset="1" stop-color="#ced386"/>
    </linearGradient>
    <filter id="drop-shadow-2" filterUnits="userSpaceOnUse">
      <feOffset dx="0" dy="7"/>
      <feGaussianBlur result="blur-2" stdDeviation="7"/>
      <feFlood flood-color="#000" flood-opacity=".75"/>
      <feComposite in2="blur-2" operator="in"/>
      <feComposite in="SourceGraphic"/>
    </filter>
    <linearGradient id="linear-gradient-5" x1="640" y1="809.07" x2="640" y2="320.38" gradientUnits="userSpaceOnUse">
      <stop offset="0" stop-color="#c79245"/>
      <stop offset="1" stop-color="#eccd7e"/>
    </linearGradient>
  </defs>
  <circle class="cls-1" cx="640" cy="640" r="583"/>
  <path class="cls-3" d="M610.94,134.08c-32.38,2.14-72.29,8.23-77.04,11.8-4.83,3.48-4.75,2.85-4.75,41.09l-.08,35.08-1.74.71c-.95.32-7.76,2.45-15.2,4.75-15.04,4.59-30.32,10.13-43.94,16.07-10.77,4.59-33.25,15.76-39.98,19.79l-4.75,2.85-24.54-24.39c-13.46-13.46-25.34-24.86-26.29-25.34-2.38-1.19-7.68-1.11-10.77.24-3.25,1.35-20.27,13.54-32.62,23.36-31.2,24.7-64.69,58.2-89.15,89.15-14.73,18.61-23.52,31.43-24.47,35.63-1.43,6.18-.79,6.97,25.73,33.65l24.86,24.94-2.85,4.75c-4.04,6.81-15.2,29.3-19.79,39.98-5.94,13.62-11.48,28.9-16.07,43.94-2.3,7.36-4.43,14.25-4.75,15.2l-.71,1.74-35.08.08c-38.4,0-37.53-.08-41.25,4.91-2.69,3.64-7.76,33.73-10.61,62.79-1.9,19.95-1.9,66.35,0,86.3,2.85,29.06,7.92,59.22,10.69,62.87,3.64,4.91,2.85,4.83,41.17,4.83l35.08.08.71,1.74c.32.95,2.45,7.76,4.75,15.2,4.59,15.04,10.13,30.32,16.07,43.94,4.59,10.77,15.76,33.25,19.79,39.98l2.85,4.75-24.39,24.54c-13.46,13.46-24.86,25.34-25.34,26.29-1.19,2.38-1.11,7.68.24,10.77,1.35,3.25,13.54,20.27,23.36,32.62,24.7,31.2,58.2,64.69,89.15,89.15,18.61,14.73,31.43,23.52,35.63,24.47,6.18,1.43,6.97.79,33.65-25.73l24.94-24.86,4.75,2.85c6.81,4.04,29.3,15.2,39.98,19.79,13.62,5.94,28.9,11.48,43.94,16.07,7.44,2.3,14.25,4.43,15.2,4.75l1.74.71.08,35.08c0,38.4-.08,37.53,4.91,41.25,3.64,2.69,33.73,7.76,62.79,10.61,19.95,1.9,66.35,1.9,86.3,0,29.06-2.85,59.22-7.92,62.87-10.69,4.91-3.64,4.83-2.85,4.83-41.17l.08-35.08,1.74-.71c.95-.32,7.84-2.45,15.2-4.75,15.04-4.59,30.32-10.13,43.94-16.07,10.77-4.59,33.25-15.76,39.98-19.79l4.75-2.85,24.54,24.39c13.54,13.46,25.34,24.86,26.29,25.34,2.38,1.19,7.68,1.11,10.77-.24,3.25-1.35,20.27-13.54,32.62-23.36,31.2-24.7,64.69-58.2,89.15-89.15,14.73-18.61,23.52-31.43,24.47-35.63,1.43-6.18.79-6.97-25.73-33.65l-24.86-24.94,2.85-4.75c4.04-6.81,15.2-29.3,19.79-39.98,5.94-13.62,11.48-28.9,16.07-43.94,2.3-7.44,4.43-14.25,4.75-15.2l.71-1.74,35.08-.08c38.4,0,37.53.08,41.25-4.91,2.69-3.64,7.76-33.73,10.61-62.79,1.9-19.95,1.9-66.35,0-86.3-2.85-29.06-7.92-59.22-10.69-62.87-3.64-4.91-2.85-4.83-41.17-4.83l-35.08-.08-.71-1.74c-.32-.95-2.45-7.84-4.75-15.2-4.59-15.04-10.13-30.32-16.07-43.94-4.59-10.77-15.76-33.25-19.79-39.98l-2.85-4.75,24.39-24.54c13.46-13.54,24.86-25.34,25.34-26.29,1.19-2.38,1.11-7.68-.24-10.77-1.35-3.25-13.54-20.27-23.36-32.62-24.7-31.2-58.2-64.69-89.15-89.15-18.61-14.73-31.43-23.52-35.63-24.47-6.18-1.43-6.97-.79-33.65,25.73l-24.94,24.86-4.75-2.85c-6.81-4.04-29.3-15.2-39.98-19.79-13.62-5.94-28.9-11.48-43.94-16.07-7.36-2.3-14.25-4.43-15.2-4.75l-1.74-.71-.08-35.08c0-38.4.08-37.53-4.91-41.25-3.64-2.69-34.2-7.84-62-10.45-15.84-1.5-58.04-2.14-73-1.19ZM663.2,406.53c80.52,7.28,153.21,58.35,188.68,132.54,13.46,28.11,20.67,56.61,22.41,88.52,3.25,58.51-15.36,115.36-52.89,161.28-37.29,45.76-90.66,75.46-150.52,83.93-16.47,2.3-45.29,2.3-61.76,0-52.26-7.36-98.34-30.25-135-66.9s-59.54-82.74-66.9-135c-2.3-16.47-2.3-45.29,0-61.76,8.47-59.86,38.16-113.22,83.93-150.52,49.01-39.98,108-57.88,172.05-52.1Z"/>
  <circle class="cls-7" cx="640" cy="640" r="344.37"/>
  <circle class="cls-4" cx="640" cy="640" r="370.75"/>
  <path class="cls-5" d="M440.88,952.78c57.52,36.7,125.84,57.97,199.12,57.97s141.6-21.27,199.12-57.97v-342.56h-398.25v342.56Z"/>
  <path class="cls-6" d="M827.95,320.38l-187.95,187.69-187.95-187.69c-109.39,64.46-182.8,183.46-182.8,319.62s68.44,246.95,171.63,312.78v-342.56l199.12,198.85,199.12-198.85v342.56c103.19-65.83,171.63-181.31,171.63-312.78s-73.41-255.15-182.8-319.62Z"/>
  <path class="cls-2" d="M827.95,320.38l-187.95,187.69-187.95-187.69c-3.77,2.22-7.49,4.51-11.18,6.86v282.97l199.12,198.85,199.12-198.85v-282.97c-3.68-2.35-7.41-4.64-11.18-6.86Z"/>
</svg>